<svg xmlns="http://www.w3.org/2000/svg" version="1.1" xmlns:xlink="http://www.w3.org/1999/xlink" xmlns:svgjs="http://svgjs.dev/svgjs" width="1500" height="1500" viewBox="0 0 1500 1500"><rect width="1500" height="1500" fill="#ffffff"></rect><g transform="matrix(0.6666666666666666,0,0,0.6666666666666666,249.39393939393938,586.0248824154149)"><svg viewBox="0 0 396 130" data-background-color="#ffffff" preserveAspectRatio="xMidYMid meet" height="492" width="1500" xmlns="http://www.w3.org/2000/svg" xmlns:xlink="http://www.w3.org/1999/xlink"><g id="tight-bounds" transform="matrix(1,0,0,1,0.2400000000000091,-0.009861932938832751)"><svg viewBox="0 0 395.52 130.01972386587767" height="130.01972386587767" width="395.52"><g><svg viewBox="0 0 395.52 130.01972386587767" height="130.01972386587767" width="395.52"><g><svg viewBox="0 0 395.52 130.01972386587767" height="130.01972386587767" width="395.52"><g id="textblocktransform"><svg viewBox="0 0 395.52 130.01972386587767" height="130.01972386587767" width="395.52" id="textblock"><g><svg viewBox="0 0 395.52 130.01972386587767" height="130.01972386587767" width="395.52"><g transform="matrix(1,0,0,1,0,0)"><svg width="395.52" viewBox="3.55 -37.9 152.08999999999997 50" height="130.01972386587767" data-palette-color="#10a6e9"><path d="M3.55 0L5.35-34.1 10.7-34.1 18.4-13.8Q19.05-12.05 19.6-10.58 20.15-9.1 20.55-7.95L20.55-7.95Q21.05-6.65 21.4-5.55L21.4-5.55 21.5-5.55Q21.8-6.65 22.25-7.95L22.25-7.95Q22.65-9.1 23.15-10.58 23.65-12.05 24.35-13.8L24.35-13.8 32.2-34.1 37.55-34.1 39.3 0 35.05 0 34.2-18.75Q34.1-21.2 34.05-22.9 34-24.6 34-25.7L34-25.7 34-27.8 33.9-27.8Q33.6-27.05 33.15-25.75L33.15-25.75Q32.75-24.65 32.13-22.93 31.5-21.2 30.6-18.75L30.6-18.75 23.55 0 19.3 0 12.2-18.75Q11.25-21.15 10.65-22.88 10.05-24.6 9.65-25.7L9.65-25.7Q9.2-27 8.95-27.8L8.95-27.8 8.85-27.8Q8.9-27 8.95-25.7L8.95-25.7Q9-23.6 8.8-18.75L8.8-18.75 7.8 0 3.55 0ZM53.05-0.65L43-25.15 47.25-25.15 51.95-13.8Q52.65-12.15 53.22-10.5 53.8-8.85 54.25-7.55L54.25-7.55Q54.8-6 55.2-4.55L55.2-4.55 55.25-4.55Q55.7-6 56.25-7.55L56.25-7.55Q56.7-8.85 57.3-10.5 57.9-12.15 58.55-13.8L58.55-13.8 62.9-25.15 67.1-25.15 55.2 4.85Q54.5 6.7 53.37 8.05 52.25 9.4 51.2 10.3L51.2 10.3Q49.95 11.35 48.6 12.1L48.6 12.1 46.65 8.65Q47.7 8.15 48.6 7.4L48.6 7.4Q49.4 6.75 50.2 5.78 51 4.8 51.5 3.45L51.5 3.45 53.05-0.65ZM71.9 0L71.9-34.1 76.09-34.1 76.09-4 91.59-4 91.59 0 71.9 0ZM96.04 0L96.04-25.2 100.04-25.65 100.04 0 96.04 0ZM95.39-32.35L95.39-32.35Q95.39-33.5 96.17-34.27 96.94-35.05 98.09-35.05L98.09-35.05Q99.29-35.05 100.12-34.27 100.94-33.5 100.94-32.35L100.94-32.35Q100.94-31.2 100.12-30.43 99.29-29.65 98.09-29.65L98.09-29.65Q96.94-29.65 96.17-30.43 95.39-31.2 95.39-32.35ZM107.29 0L107.29-20.15Q107.34-21.2 107.04-24.7L107.04-24.7 110.74-25.2 111.29-22Q112.79-23 114.27-23.75 115.74-24.5 117.29-25.08 118.84-25.65 120.29-25.65L120.29-25.65Q122.34-25.65 123.72-25.18 125.09-24.7 125.94-23.6 126.79-22.5 127.17-20.7 127.54-18.9 127.54-16.2L127.54-16.2 127.54 0 123.54 0 123.54-15.75Q123.54-17.25 123.49-18.43 123.44-19.6 123.07-20.43 122.69-21.25 121.92-21.7 121.14-22.15 119.74-22.15L119.74-22.15Q118.44-22.15 116.99-21.58 115.54-21 114.14-20.25 112.74-19.5 111.29-18.5L111.29-18.5 111.29 0 107.29 0ZM134.59 0L134.59-37.45 138.59-37.9 138.59-15.35 149.74-25.15 155.24-25.15 144.34-15.6 155.64 0 150.59 0 141.39-13.05 138.59-10.6 138.59 0 134.59 0Z" opacity="1" transform="matrix(1,0,0,1,0,0)" fill="#10a6e9" class="wordmark-text-0" data-fill-palette-color="primary" id="text-0"></path></svg></g></svg></g></svg></g></svg></g></svg></g><defs></defs></svg><rect width="395.52" height="130.01972386587767" fill="none" stroke="none" visibility="hidden"></rect></g></svg></g></svg>