<svg xmlns="http://www.w3.org/2000/svg" version="1.1" xmlns:xlink="http://www.w3.org/1999/xlink" xmlns:svgjs="http://svgjs.dev/svgjs" width="1500" height="367" viewBox="0 0 1500 367"><g transform="matrix(1,0,0,1,-0.9090909090909918,-0.7110266801583123)"><svg viewBox="0 0 396 97" data-background-color="#ffffff" preserveAspectRatio="xMidYMid meet" height="367" width="1500" xmlns="http://www.w3.org/2000/svg" xmlns:xlink="http://www.w3.org/1999/xlink"><g id="tight-bounds" transform="matrix(1,0,0,1,0.2400000000000091,0.1879280326303956)"><svg viewBox="0 0 395.52 96.62414393473922" height="96.62414393473922" width="395.52"><g><svg viewBox="0 0 395.52 96.62414393473922" height="96.62414393473922" width="395.52"><g><svg viewBox="0 0 395.52 96.62414393473922" height="96.62414393473922" width="395.52"><g id="textblocktransform"><svg viewBox="0 0 395.52 96.62414393473922" height="96.62414393473922" width="395.52" id="textblock"><g><svg viewBox="0 0 395.52 96.62414393473922" height="96.62414393473922" width="395.52"><g transform="matrix(1,0,0,1,0,0)"><svg width="395.52" viewBox="3.66 -38.38 205.1557575971489 50.120000000000005" height="96.62414393473922" data-palette-color="#0ae2f5"><g transform="matrix(1,0,0,1,0,0)"><g><svg width="24.065489330219222" viewBox="2.52 -36.86 104.81 37.36" height="8.57763671875" data-palette-color="#0ae2f5" id="scriptelement" x="184.75026826692968" y="-8.57763671875"><path d="M36.58-18.18L36.58-18.18Q36.58-12.23 34.33-8.06 32.08-3.89 28.22-1.7 24.36 0.5 19.55 0.5L19.55 0.5Q14.7 0.5 10.85-1.7 7-3.91 4.76-8.08 2.52-12.25 2.52-18.18L2.52-18.18Q2.52-24.13 4.76-28.3 7-32.48 10.85-34.67 14.7-36.86 19.55-36.86L19.55-36.86Q24.36-36.86 28.22-34.67 32.08-32.48 34.33-28.3 36.58-24.13 36.58-18.18ZM28.78-18.18L28.78-18.18Q28.78-22.03 27.64-24.68 26.49-27.33 24.41-28.69 22.34-30.06 19.55-30.06L19.55-30.06Q16.76-30.06 14.68-28.69 12.61-27.33 11.46-24.68 10.32-22.03 10.32-18.18L10.32-18.18Q10.32-14.33 11.46-11.68 12.61-9.04 14.68-7.67 16.76-6.3 19.55-6.3L19.55-6.3Q22.34-6.3 24.41-7.67 26.49-9.04 27.64-11.68 28.78-14.33 28.78-18.18ZM49.94 0L42.26 0 42.26-36.36 56.6-36.36Q60.72-36.36 63.64-34.9 66.56-33.43 68.1-30.76 69.64-28.09 69.64-24.49L69.64-24.49Q69.64-20.86 68.07-18.26 66.51-15.66 63.55-14.28 60.6-12.89 56.41-12.89L56.41-12.89 46.8-12.89 46.8-19.07 55.16-19.07Q57.37-19.07 58.82-19.67 60.28-20.28 61-21.48 61.72-22.69 61.72-24.49L61.72-24.49Q61.72-26.3 61-27.54 60.28-28.78 58.81-29.43 57.35-30.08 55.13-30.08L55.13-30.08 49.94-30.08 49.94 0ZM53.6-16.55L61.89-16.55 70.93 0 62.44 0 53.6-16.55ZM106.99-24.61L99.18-24.61Q98.81-25.91 98.13-26.91 97.46-27.91 96.49-28.61 95.52-29.31 94.29-29.69 93.05-30.06 91.56-30.06L91.56-30.06Q88.77-30.06 86.67-28.68 84.57-27.29 83.39-24.65 82.22-22.02 82.22-18.22L82.22-18.22Q82.22-14.42 83.38-11.75 84.53-9.09 86.64-7.7 88.76-6.3 91.63-6.3L91.63-6.3Q94.24-6.3 96.1-7.24 97.95-8.17 98.94-9.87 99.92-11.58 99.92-13.9L99.92-13.9 101.49-13.67 92.11-13.67 92.11-19.46 107.33-19.46 107.33-14.88Q107.33-10.09 105.3-6.65 103.28-3.21 99.73-1.36 96.18 0.5 91.6 0.5L91.6 0.5Q86.48 0.5 82.61-1.77 78.74-4.03 76.58-8.21 74.43-12.39 74.43-18.15L74.43-18.15Q74.43-22.57 75.71-26.04 77-29.51 79.33-31.92 81.65-34.34 84.74-35.6 87.83-36.86 91.44-36.86L91.44-36.86Q94.53-36.86 97.19-35.96 99.85-35.07 101.92-33.43 103.99-31.8 105.3-29.55 106.62-27.31 106.99-24.61L106.99-24.61Z" opacity="1" transform="matrix(1,0,0,1,0,0)" fill="#0ae2f5" class="undefined-123" data-fill-palette-color="primary" id="tk-123"></path></svg></g></g><path d="M23.54-14.01L23.73-14.01Q24.07-15.33 24.48-16.61 24.88-17.9 25.46-19.48L25.46-19.48Q25.98-20.9 26.71-22.74 27.44-24.58 28.26-26.49 29.08-28.39 29.86-30.03 30.64-31.67 31.27-32.64L31.27-32.64Q32.06-33.84 32.97-34.42 33.89-35.01 35.67-35.01L35.67-35.01 38.87-35.01Q40.14-35.01 41-34.63 41.87-34.25 42.24-32.84L42.24-32.84Q42.5-31.79 42.75-29.76 42.99-27.73 43.16-24.15 43.33-20.56 43.43-14.93 43.53-9.3 43.53-1.03L43.53-1.03Q43.53-0.59 43.24-0.29 42.94 0 42.53 0L42.53 0 36.96 0Q36.55 0 36.25-0.29 35.96-0.59 35.96-1.05L35.96-1.05Q35.96-7.5 35.96-11.99 35.96-16.48 35.94-19.43 35.91-22.39 35.88-24.13 35.84-25.88 35.77-26.83L35.77-26.83 35.62-26.83Q34.33-23.85 32.86-20.2 31.4-16.55 30-12.68 28.61-8.81 27.51-5.13L27.51-5.13Q27.2-4.03 26.72-3.6 26.25-3.17 24.56-3.17L24.56-3.17 21.75-3.17Q20.31-3.17 19.84-3.54 19.36-3.91 19.02-5.13L19.02-5.13Q18.21-7.91 17.24-11.01 16.26-14.11 15.22-17.1 14.18-20.09 13.22-22.62 12.26-25.15 11.5-26.83L11.5-26.83 11.35-26.83Q11.16-23.95 11.01-19.82 10.86-15.7 10.78-10.86 10.69-6.03 10.67-1L10.67-1Q10.67-0.56 10.38-0.28 10.08 0 9.67 0L9.67 0 4.66 0Q4.25 0 3.96-0.29 3.66-0.59 3.66-1.05L3.66-1.05Q3.69-14.06 4.19-21.83 4.69-29.59 5.27-32.23L5.27-32.23Q5.66-33.96 6.65-34.48 7.64-35.01 8.91-35.01L8.91-35.01 12.87-35.01Q14.21-35.01 14.83-34.53 15.45-34.06 16.36-32.69L16.36-32.69Q16.89-31.88 17.64-30.27 18.38-28.66 19.19-26.7 20-24.73 20.72-22.81 21.44-20.9 21.9-19.48L21.9-19.48Q22.39-18.04 22.8-16.69 23.22-15.33 23.54-14.01L23.54-14.01ZM51.27 11.74L51.27 11.74Q50.36 11.74 49.9 11.56 49.44 11.38 49.12 11.11L49.12 11.11Q48.48 10.5 47.75 9.4L47.75 9.4Q47.58 9.13 47.39 8.78 47.19 8.42 47.19 8.18L47.19 8.18Q47.19 7.91 47.31 7.69 47.43 7.47 47.6 7.28L47.6 7.28Q48 6.76 48.56 6.21 49.12 5.66 49.51 5.35L49.51 5.35Q49.78 5.13 49.95 5.07 50.12 5 50.24 5L50.24 5Q50.36 5 50.61 5.05 50.85 5.1 51.34 5.1L51.34 5.1Q53.02 5.1 54.86 4 56.69 2.91 58.47-0.12L58.47-0.12Q56.61-1.83 54.82-4.41 53.02-6.98 51.58-10 50.14-13.01 49.28-16.02 48.41-19.02 48.41-21.56L48.41-21.56Q48.41-22.09 48.68-22.41L48.68-22.41Q49.8-23.8 51.88-25.32L51.88-25.32Q52.24-25.56 52.54-25.56L52.54-25.56Q52.85-25.56 53.2-25.32L53.2-25.32Q54.32-24.51 55.09-23.8 55.86-23.1 56.39-22.41L56.39-22.41Q56.66-22.09 56.66-21.51L56.66-21.51 56.66-21.61Q56.66-19.68 57.13-17.53 57.59-15.38 58.4-13.34 59.2-11.3 60.2-9.66 61.2-8.01 62.28-7.03L62.28-7.03 62.4-7.03Q62.89-7.96 63.49-9.7 64.08-11.45 64.62-13.59 65.16-15.72 65.5-17.83 65.84-19.95 65.84-21.58L65.84-21.58 65.84-21.51Q65.84-22.09 66.09-22.41L66.09-22.41Q66.65-23.1 67.4-23.8 68.16-24.51 69.24-25.32L69.24-25.32Q69.58-25.56 69.87-25.56L69.87-25.56Q70.21-25.56 70.51-25.32L70.51-25.32Q71.6-24.51 72.36-23.8 73.12-23.1 73.65-22.41L73.65-22.41Q73.9-22.09 73.9-21.53L73.9-21.53Q73.87-19.31 73.04-15.73 72.21-12.16 70.63-7.98 69.04-3.81 66.77 0.2L66.77 0.2Q63.38 6.23 59.45 8.98 55.52 11.74 51.27 11.74ZM73.9-21.58L73.9-21.58 73.9-21.51 73.9-21.53Q73.9-21.56 73.9-21.58ZM48.41-21.51L48.41-21.58 48.41-21.56 48.41-21.51ZM97.14 0L85 0Q82.49 0 81.18-0.63 79.88-1.27 79.43-2.71 78.97-4.15 78.97-6.54L78.97-6.54 78.97-31.1Q78.97-31.81 79.22-32.18L79.22-32.18Q80.32-33.79 82.29-35.57L82.29-35.57Q82.66-35.86 82.93-35.86L82.93-35.86Q83.22-35.86 83.54-35.57L83.54-35.57Q84.61-34.64 85.35-33.8 86.08-32.96 86.62-32.18L86.62-32.18Q86.86-31.79 86.86-31.1L86.86-31.1 86.86-9.45Q86.86-7.81 87.45-7.1 88.03-6.4 89.64-6.4L89.64-6.4 97.14-6.42Q97.72-6.42 98.02-6.23L98.02-6.23Q98.65-5.79 99.34-5.18 100.02-4.57 100.78-3.71L100.78-3.71Q101.02-3.39 101.02-3.2L101.02-3.2Q101.02-2.98 100.78-2.71L100.78-2.71Q100.02-1.86 99.34-1.25 98.65-0.63 98.02-0.2L98.02-0.2Q97.68 0 97.14 0L97.14 0ZM102.7-33.2L102.7-33.2Q102.7-33.52 102.9-33.76 103.09-34.01 103.41-34.4L103.41-34.4Q104.09-35.18 105-36.05 105.9-36.91 106.83-37.72L106.83-37.72Q107.41-38.18 107.71-38.18L107.71-38.18Q108-38.18 108.61-37.72L108.61-37.72Q110.59-36.01 111.98-34.4L111.98-34.4Q112.3-34.03 112.5-33.78 112.71-33.52 112.71-33.2L112.71-33.2Q112.71-32.89 112.5-32.64 112.3-32.4 111.96-31.98L111.96-31.98Q111.3-31.23 110.42-30.36 109.54-29.49 108.61-28.71L108.61-28.71Q108.27-28.42 108.07-28.33 107.88-28.25 107.71-28.25L107.71-28.25Q107.54-28.25 107.35-28.33 107.17-28.42 106.78-28.71L106.78-28.71Q105.8-29.49 104.95-30.36 104.09-31.23 103.41-32.03L103.41-32.03Q103.09-32.42 102.9-32.65 102.7-32.89 102.7-33.2ZM111.54-23.71L111.54-1.29Q111.54-0.56 111.24-0.28 110.93 0 110.2 0L110.2 0 105.17 0Q104.44 0 104.13-0.28 103.83-0.56 103.83-1.29L103.83-1.29 103.83-23.71Q103.83-24.44 104.13-24.72 104.44-25 105.17-25L105.17-25 110.2-25Q110.93-25 111.24-24.72 111.54-24.44 111.54-23.71L111.54-23.71ZM142.35-15.55L142.35-15.55 142.35-1.29Q142.35-0.56 142.04-0.28 141.74 0 141.01 0L141.01 0 135.98 0Q135.24 0 134.94-0.28 134.63-0.56 134.63-1.29L134.63-1.29 134.63-14.28Q134.63-16.94 133.51-18.16 132.39-19.38 130.46-19.38L130.46-19.38Q128.53-19.38 127.49-18.55 126.45-17.72 125.89-16.46L125.89-16.46 125.89-1.29Q125.89-0.56 125.59-0.28 125.28 0 124.55 0L124.55 0 119.52 0Q118.79 0 118.48-0.28 118.18-0.56 118.18-1.29L118.18-1.29 118.18-21.75Q118.18-22.34 118.42-22.66L118.42-22.66Q118.94-23.34 119.66-24.05 120.38-24.76 121.43-25.56L121.43-25.56Q121.74-25.81 122.04-25.81L122.04-25.81Q122.3-25.81 122.65-25.56L122.65-25.56Q123.67-24.76 124.4-24.02 125.14-23.29 125.7-22.51L125.7-22.51 125.82-22.51Q126.24-23.05 127.07-23.77 127.9-24.49 129.4-25.05 130.9-25.61 133.24-25.61L133.24-25.61Q135.54-25.61 137.61-24.68 139.69-23.75 141.02-21.56 142.35-19.36 142.35-15.55ZM156.65-10.21L156.65-1.29Q156.65-0.56 156.35-0.28 156.04 0 155.31 0L155.31 0 150.28 0Q149.55 0 149.24-0.28 148.94-0.56 148.94-1.29L148.94-1.29 148.94-34.33Q148.94-34.91 149.18-35.23L149.18-35.23Q150.21-36.57 152.18-38.13L152.18-38.13Q152.53-38.38 152.8-38.38L152.8-38.38Q153.11-38.38 153.41-38.13L153.41-38.13Q154.46-37.33 155.18-36.62 155.9-35.91 156.41-35.23L156.41-35.23Q156.65-34.91 156.65-34.33L156.65-34.33 156.65-15.16 156.95-15.16Q160.66-15.16 161.99-16.49 163.32-17.82 163.32-20.19L163.32-20.19 163.32-21.51Q163.32-22.09 163.56-22.41L163.56-22.41Q164.59-23.75 166.56-25.32L166.56-25.32Q166.91-25.56 167.18-25.56L167.18-25.56Q167.49-25.56 167.79-25.32L167.79-25.32Q168.84-24.51 169.56-23.8 170.28-23.1 170.79-22.41L170.79-22.41Q171.03-22.09 171.03-21.51L171.03-21.51 171.03-20.19Q171.03-18.8 170.48-17.11 169.93-15.43 168.49-14.14 167.05-12.84 164.39-12.62L164.39-12.62 164.39-12.5Q166.44-11.6 167.93-10.11 169.42-8.62 170.42-6.92 171.42-5.22 171.97-3.67 172.52-2.12 172.69-1.05L172.69-1.05Q172.86 0 171.98 0L171.98 0 165.56 0Q164.73 0 164.61-1L164.61-1Q164.44-2.15 163.87-3.7 163.29-5.25 162.33-6.74 161.36-8.23 160.01-9.22 158.65-10.21 156.95-10.21L156.95-10.21 156.65-10.21Z" opacity="1" transform="matrix(1,0,0,1,0,0)" fill="#0ae2f5" class="wordmark-text-0" data-fill-palette-color="primary" id="text-0"></path></svg></g></svg></g></svg></g></svg></g></svg></g><defs></defs></svg><rect width="395.52" height="96.62414393473922" fill="none" stroke="none" visibility="hidden"></rect></g></svg></g></svg>