<svg xmlns="http://www.w3.org/2000/svg" version="1.1" xmlns:xlink="http://www.w3.org/1999/xlink" xmlns:svgjs="http://svgjs.dev/svgjs" width="1500" height="1500" viewBox="0 0 1500 1500"><rect width="1500" height="1500" fill="#ffffff"></rect><g transform="matrix(0.6666666666666666,0,0,0.6666666666666666,249.39393939393938,643.5976534141931)"><svg viewBox="0 0 396 85" data-background-color="#ffffff" preserveAspectRatio="xMidYMid meet" height="321" width="1500" xmlns="http://www.w3.org/2000/svg" xmlns:xlink="http://www.w3.org/1999/xlink"><g id="tight-bounds" transform="matrix(1,0,0,1,0.2400000000000091,-0.237385701899143)"><svg viewBox="0 0 395.52 85.47477140379829" height="85.47477140379829" width="395.52"><g><svg viewBox="0 0 595.619469773373 128.71773367346935" height="85.47477140379829" width="395.52"><g><rect width="11.550147322760814" height="128.71773367346935" x="158.31333469469385" y="0" fill="#0ae2f5" opacity="1" stroke-width="0" stroke="transparent" fill-opacity="1" class="rect-yte-0" data-fill-palette-color="primary" rx="1%" id="yte-0" data-palette-color="#0ae2f5"></rect></g><g transform="matrix(1,0,0,1,200.09946977337302,0.32019336734693127)"><svg viewBox="0 0 395.52 128.0773469387755" height="128.0773469387755" width="395.52"><g id="textblocktransform"><svg viewBox="0 0 395.52 128.0773469387755" height="128.0773469387755" width="395.52" id="textblock"><g><svg viewBox="0 0 395.52 128.0773469387755" height="128.0773469387755" width="395.52"><g transform="matrix(1,0,0,1,0,0)"><svg width="395.52" viewBox="2.1 -39.25 156.79 50.78" height="128.0773469387755" data-palette-color="#0ae2f5"><path d="M2.1-33.75L2.1 0 7.13 0 7.13-30.2 7.25-30.2 16.28-1.85 22.38-1.85 31.4-30.2 31.53-30.2 31.53 0 36.55 0 36.55-33.75 28.23-33.75 19.38-5.5 19.28-5.5 10.43-33.75 2.1-33.75ZM40.77-29.63L49.42 0 57.15 0 65.72-29.63 60.42-29.63 53.3-3.48 53.25-3.48 46.05-29.63 40.77-29.63ZM41.97 8.05L41.97 11.53Q47.72 11.53 51.42 9.24 55.12 6.95 57.15 0L57.15 0 52.45 0Q51.02 4.88 48.62 6.46 46.22 8.05 41.97 8.05L41.97 8.05ZM69.15-33.75L69.15 0 89.05 0 89.05-3.53 74.25-3.53 74.25-33.75 69.15-33.75ZM94.49-29.65L94.49 0 99.57 0 99.57-29.65 94.49-29.65ZM99.57-37.75L94.49-37.75 94.49-33.27 99.57-33.27 99.57-37.75ZM105.99-29.63L105.99 0 111.04 0 111.04-23.9 109.97-29.63 105.99-29.63ZM124.57-16.93L124.57 0 129.62 0 129.62-16.95Q129.62-23 127.48-26.46 125.34-29.93 120.19-29.93L120.19-29.93Q115.02-29.93 111.73-26.7 108.44-23.48 108.44-19.83L108.44-19.83 110.89-18.28Q110.89-21.78 113.07-24.08 115.24-26.38 118.37-26.38L118.37-26.38Q121.49-26.38 123.03-24.23 124.57-22.08 124.57-16.93L124.57-16.93ZM148.46-19.18L144.99-15.65 153.41 0 158.89 0 148.46-19.18ZM135.09-39.25L135.09 0 140.14 0 140.14-10.75 145.26-15.6 148.39-18.65 158.54-29.65 152.59-29.65 140.14-16.43 140.14-39.25 135.09-39.25Z" opacity="1" transform="matrix(1,0,0,1,0,0)" fill="#0ae2f5" class="wordmark-text-0" data-fill-palette-color="primary" id="text-0"></path></svg></g></svg></g></svg></g></svg></g><g transform="matrix(1,0,0,1,0,0.32019336734693127)"><svg viewBox="0 0 128.0773469387755 128.0773469387755" height="128.0773469387755" width="128.0773469387755"><g><svg xmlns="http://www.w3.org/2000/svg" xml:space="preserve" viewBox="5 5 90 90" x="0" y="0" height="128.0773469387755" width="128.0773469387755" class="icon-icon-0" data-fill-palette-color="accent" id="icon-0"><path d="M50 5C25.2 5 5 25.2 5 50s20.2 45 45 45 45-20.2 45-45S74.8 5 50 5m34.6 50c-2.4 16.9-17 30-34.6 30S17.8 71.9 15.4 55h20.5C38 60.8 43.5 65 50 65V55c-2.8 0-5-2.2-5-5s2.2-5 5-5V35c-6.5 0-12.1 4.2-14.1 10H15.4c2.4-16.9 17-30 34.6-30s32.2 13.1 34.6 30H60v10z" fill="#0ae2f5" data-fill-palette-color="accent"></path></svg></g></svg></g></svg></g><defs></defs></svg><rect width="395.52" height="85.47477140379829" fill="none" stroke="none" visibility="hidden"></rect></g></svg></g></svg>