<svg xmlns="http://www.w3.org/2000/svg" version="1.1" xmlns:xlink="http://www.w3.org/1999/xlink" xmlns:svgjs="http://svgjs.dev/svgjs" width="1500" height="393" viewBox="0 0 1500 393"><g transform="matrix(1,0,0,1,-0.9090909090909918,0.33918188142018835)"><svg viewBox="0 0 396 104" data-background-color="#ffffff" preserveAspectRatio="xMidYMid meet" height="393" width="1500" xmlns="http://www.w3.org/2000/svg" xmlns:xlink="http://www.w3.org/1999/xlink"><g id="tight-bounds" transform="matrix(1,0,0,1,0.2400000000000091,-0.08975805513409796)"><svg viewBox="0 0 395.52 104.17951611026818" height="104.17951611026818" width="395.52"><g><svg viewBox="0 0 670.2146003567212 176.53375999999997" height="104.17951611026818" width="395.52"><g transform="matrix(1,0,0,1,274.69460035672125,24.170486557377032)"><svg viewBox="0 0 395.52 128.1927868852459" height="128.1927868852459" width="395.52"><g id="textblocktransform"><svg viewBox="0 0 395.52 128.1927868852459" height="128.1927868852459" width="395.52" id="textblock"><g><svg viewBox="0 0 395.52 128.1927868852459" height="128.1927868852459" width="395.52"><g transform="matrix(1,0,0,1,0,0)"><svg width="395.52" viewBox="4.2 -38 146.39000000000001 47.45" height="128.1927868852459" data-palette-color="#0b81f5"><path d="M10.4 0L4.2 0 4.2-35.45 4.7-35.45 18.8-18.82 32.8-35.45 33.35-35.45 33.35 0 27.15 0 27.15-14.95 27.38-20.85 25.6-18.15 18.75-10.1 11.9-18.15 10.13-20.85 10.4-14.95 10.4 0ZM48.7 9.45L42.55 9.45 46.6-1.7 37.25-24.9 44.2-24.9 47.9-13.8 49.5-8.05 51.1-13.8 54.85-24.9 61.4-24.9 48.7 9.45ZM82.15 0L65.4 0 65.4-34.85 71.75-34.85 71.75-5.5 82.15-5.5 82.15 0ZM93.94-28.95L86.94-28.95 86.94-35.6 93.94-35.6 93.94-28.95ZM93.69 0L87.19 0 87.19-24.9 93.69-24.9 93.69 0ZM107.54 0L101.14 0 101.14-24.9 106.94-24.9 107.07-21.63Q108.04-23.13 109.79-24.31 111.54-25.5 114.39-25.5L114.39-25.5Q118.19-25.5 120.04-23.1 121.89-20.7 121.89-16.45L121.89-16.45 121.89 0 115.49 0 115.49-15.9Q115.49-17.98 114.62-19.26 113.74-20.55 111.94-20.55L111.94-20.55Q110.19-20.55 108.87-19.26 107.54-17.98 107.54-15.9L107.54-15.9 107.54 0ZM135.19 0L129.29 0 129.29-38 135.19-38 135.19-19.35 134.99-13.5 142.64-24.9 149.74-24.9 141.04-13.45 150.59 0 143.04 0 134.99-12.05 135.19-5.95 135.19 0Z" opacity="1" transform="matrix(1,0,0,1,0,0)" fill="#0b81f5" class="wordmark-text-0" data-fill-palette-color="primary" id="text-0"></path></svg></g></svg></g></svg></g></svg></g><g><svg viewBox="0 0 244.43135999999996 176.53375999999997" height="176.53375999999997" width="244.43135999999996"><g><svg xmlns="http://www.w3.org/2000/svg" xml:space="preserve" viewBox="5 17.5 90 65" x="0" y="0" height="176.53375999999997" width="244.43135999999996" class="icon-icon-0" data-fill-palette-color="accent" id="icon-0"><path d="M92.5 27.5h-25V20c0-1.4-1.1-2.5-2.5-2.5H35c-1.4 0-2.5 1.1-2.5 2.5v7.5h-25C6.1 27.5 5 28.6 5 30v50c0 1.4 1.1 2.5 2.5 2.5h85c1.4 0 2.5-1.1 2.5-2.5V30c0-1.4-1.1-2.5-2.5-2.5m-55-5h25v5h-25z m52.5 55H10V47.2c3.2 3.3 7.6 5.3 12.5 5.3h20V55c0 1.4 1.1 2.5 2.5 2.5h10c1.4 0 2.5-1.1 2.5-2.5v-2.5h20c4.9 0 9.3-2 12.5-5.3z m-42.5-25v-5h5v5zM90 35c0 6.9-5.6 12.5-12.5 12.5h-20V45c0-1.4-1.1-2.5-2.5-2.5H45c-1.4 0-2.5 1.1-2.5 2.5v2.5h-20C15.6 47.5 10 41.9 10 35v-2.5h80z" fill="#0b81f5" data-fill-palette-color="accent"></path></svg></g></svg></g></svg></g><defs></defs></svg><rect width="395.52" height="104.17951611026818" fill="none" stroke="none" visibility="hidden"></rect></g></svg></g></svg>