<svg xmlns="http://www.w3.org/2000/svg" version="1.1" xmlns:xlink="http://www.w3.org/1999/xlink" xmlns:svgjs="http://svgjs.dev/svgjs" width="1500" height="500" viewBox="0 0 1500 500"><g transform="matrix(1,0,0,1,-0.9087154207726371,-0.6292261690011571)"><svg viewBox="0 0 396 132" data-background-color="#ffffff" preserveAspectRatio="xMidYMid meet" height="500" width="1500" xmlns="http://www.w3.org/2000/svg" xmlns:xlink="http://www.w3.org/1999/xlink"><g id="tight-bounds" transform="matrix(1,0,0,1,0.2399008710839894,0.16611570861630298)"><svg viewBox="0 0 395.52 131.66757032493544" height="131.66757032493544" width="395.52"><g><svg viewBox="0 0 672.428438280587 223.84966293941062" height="131.66757032493544" width="395.52"><g transform="matrix(1,0,0,1,0,55.73659617558768)"><svg viewBox="0 0 395.52 112.37647058823526" height="112.37647058823526" width="395.52"><g id="textblocktransform"><svg viewBox="0 0 395.52 112.37647058823526" height="112.37647058823526" width="395.52" id="textblock"><g><svg viewBox="0 0 395.52 112.37647058823526" height="112.37647058823526" width="395.52"><g transform="matrix(1,0,0,1,0,0)"><svg width="395.52" viewBox="2.5 -36.75 175.09 49.75" height="112.37647058823526" data-palette-color="#906b7f"><g class="wordmark-text-0" data-fill-palette-color="primary" id="text-0"><path d="M23.75 0L20 0 9.25-27.65 9-27.65 6.75-31.5 6.5-31.75 2.5-31.75 2.5-33.5 12-33.5 22.95-5.25 23.2-5.25 34.25-33.5 34.25-26.4 34-26.4 23.75 0ZM13.25 0L2.5 0 2.5-1.75 6.5-1.75 6.75-2 6.75-31.5 9-27.65 9-2 9.25-1.75 13.25-1.75 13.25 0ZM43 0L30 0 30-1.75 34-1.75 34.25-2 34.25-33.5 43-33.5 43-31.75 39-31.75 38.75-31.5 38.75-2 39-1.75 43-1.75 43 0ZM60.05 0L57.4 1.5 48.7-21.25 45.2-21.25 45.2-23 56.75-23 56.75-21.25 53.5-21.25 53.25-21 59.3-4.5 59.55-4.5 65.65-21 65.4-21.25 61.9-21.25 61.9-23 71-23 71-21.25 68-21.25 60.05 0ZM50.25 13L50.25 13Q48.4 13 47.37 12.2 46.35 11.4 45.95 10.38 45.55 9.35 45.55 8.65L45.55 8.65Q45.55 7.45 46.27 6.68 47 5.9 48.05 5.9L48.05 5.9Q49.1 5.9 49.82 6.63 50.55 7.35 50.55 8.4L50.55 8.4Q50.55 9.45 49.8 10.08 49.05 10.7 48.05 10.7L48.05 10.7Q47.5 10.7 47 10.43 46.5 10.15 46.2 9.7 45.9 9.25 45.9 8.65L45.9 8.65 47.4 8.65Q47.4 9.15 47.62 9.83 47.85 10.5 48.47 11 49.1 11.5 50.25 11.5L50.25 11.5Q51.85 11.5 53.1 10.05 54.35 8.6 55.4 6.3 56.45 4 57.4 1.5L57.4 1.5 60.05 0Q59.05 2.45 58.1 4.78 57.15 7.1 56.07 8.95 55 10.8 53.57 11.9 52.15 13 50.25 13ZM98.6-10.5L98.6-10.5 100.35-10.5 98 0 73.7 0 73.7-1.75 77.7-1.75 77.95-2 77.95-31.5 77.7-31.75 73.7-31.75 73.7-33.5 86.7-33.5 86.7-31.75 82.7-31.75 82.45-31.5 82.45-2 82.7-1.75 88.5-1.75Q92.85-1.75 95.2-4.15 97.55-6.55 98.6-10.5ZM115.09 0L103.09 0 103.09-1.75 106.84-1.75 107.09-2 107.09-21 106.84-21.25 103.09-21.25 103.09-23Q104.39-23 105.67-23.03 106.94-23.05 108.24-23.1 109.54-23.15 110.84-23.25L110.84-23.25 111.09-23 111.09-2 111.34-1.75 115.09-1.75 115.09 0ZM108.84-28.5L108.84-28.5Q107.74-28.5 106.92-29.33 106.09-30.15 106.09-31.25L106.09-31.25Q106.09-32.4 106.92-33.2 107.74-34 108.84-34L108.84-34Q109.99-34 110.79-33.2 111.59-32.4 111.59-31.25L111.59-31.25Q111.59-30.15 110.79-29.33 109.99-28.5 108.84-28.5ZM143.09-17L143.09-2 143.34-1.75 147.09-1.75 147.09 0 135.09 0 135.09-1.75 138.84-1.75 139.09-2 139.09-16Q139.09-18.45 138.24-19.85 137.39-21.25 135.09-21.25L135.09-21.25Q132.99-21.25 131.07-19.83 129.14-18.4 127.09-15L127.09-15 127.09-2 127.34-1.75 131.09-1.75 131.09 0 119.09 0 119.09-1.75 122.84-1.75 123.09-2 123.09-21 122.84-21.25 119.09-21.25 119.09-23Q120.39-23 121.62-23.03 122.84-23.05 124.07-23.1 125.29-23.15 126.59-23.25L126.59-23.25 126.84-23 126.84-18.25 127.09-18.25Q128.54-20.6 130.74-22.05 132.94-23.5 136.19-23.5L136.19-23.5Q138.79-23.5 140.29-22.63 141.79-21.75 142.44-20.28 143.09-18.8 143.09-17L143.09-17ZM161.79-12.75L165.14-15.1 174.34-1.75 177.59-1.75 177.59 0 166.34 0 166.34-1.75 168.94-1.75 169.19-2 161.79-12.75ZM158.84-8.9L155.84-8.9 168.94-21 168.69-21.25 163.19-21.25 163.19-23 175.94-23 175.94-21.25 172.19-21.25 158.84-8.9ZM158.84-36.5L158.84-2 159.09-1.75 162.84-1.75 162.84 0 150.84 0 150.84-1.75 154.59-1.75 154.84-2 154.84-34.5 154.59-34.75 150.84-34.75 150.84-36.5Q152.14-36.5 153.41-36.52 154.69-36.55 155.99-36.6 157.29-36.65 158.59-36.75L158.59-36.75 158.84-36.5Z" fill="#906b7f" data-fill-palette-color="primary"></path></g></svg></g></svg></g></svg></g></svg></g><g transform="matrix(1,0,0,1,448.5787753411764,0)"><svg viewBox="0 0 223.84966293941062 223.84966293941062" height="223.84966293941062" width="223.84966293941062"><g><svg></svg></g><g id="icon-0"><svg viewBox="0 0 223.84966293941062 223.84966293941062" height="223.84966293941062" width="223.84966293941062"><g><path d="M0 111.925c0-61.814 50.11-111.925 111.925-111.925 61.814 0 111.925 50.11 111.925 111.925 0 61.814-50.11 111.925-111.925 111.925-61.814 0-111.925-50.11-111.925-111.925zM111.925 213.715c56.217 0 101.791-45.573 101.79-101.79 0-56.217-45.573-101.791-101.79-101.791-56.217 0-101.791 45.573-101.791 101.791 0 56.217 45.573 101.791 101.791 101.79z" data-fill-palette-color="accent" fill="#d9cad3" stroke="transparent"></path></g><g transform="matrix(1,0,0,1,50.34960146454489,53.49619504467969)"><svg viewBox="0 0 123.15046001032084 116.85727285005125" height="116.85727285005125" width="123.15046001032084"><g><svg xmlns="http://www.w3.org/2000/svg" xml:space="preserve" viewBox="10.938000000000006 23.597 490.8260003692335 465.744" id="dxe-0" width="123.15046001032084" height="116.85727285005125" x="0" y="0" class="icon-dxe-0" data-fill-palette-color="accent"><path d="M108.001 477.196a77 77 0 0 1-4.708 0.145c-23.033 0-45.068-10.174-60.458-27.917-12.831-14.765-19.897-33.519-19.897-52.81 0-18.841 6.729-36.602 18.947-50.011a6 6 0 0 0-0.394-8.476 6 6 0 0 0-8.476 0.394c-14.237 15.624-22.077 36.255-22.077 58.093 0 22.184 8.111 43.733 22.835 60.677 17.667 20.368 43.006 32.05 69.52 32.05 1.816 0 3.65-0.057 5.449-0.168a6 6 0 0 0-0.741-11.977M55.21 332.441a5.97 5.97 0 0 0 3.933-1.471l122.496-106.418a6 6 0 1 0-7.87-9.058L51.273 321.912a6 6 0 0 0 3.937 10.529M281.524 346.506L151.195 459.727a71.3 71.3 0 0 1-21.561 12.859 6 6 0 0 0-3.492 7.733 6 6 0 0 0 5.614 3.881c0.705 0 1.422-0.125 2.12-0.39a83.2 83.2 0 0 0 25.185-15.021l130.333-113.225a6 6 0 0 0 0.595-8.464 6 6 0 0 0-8.465-0.594M229.608 194.932a87.5 87.5 0 0 0-16.55 1.575 6 6 0 0 0-4.753 7.029 6 6 0 0 0 7.029 4.753 75.4 75.4 0 0 1 14.274-1.357c22.977 0 44.976 10.153 60.358 27.859 12.854 14.778 19.933 33.549 19.933 52.855 0 15.506-4.498 30.217-13.007 42.544a6 6 0 1 0 9.874 6.816c9.899-14.34 15.132-31.408 15.132-49.36 0-22.2-8.125-43.768-22.876-60.728-17.66-20.328-42.96-31.986-69.414-31.986" fill="#d9cad3" data-fill-palette-color="accent"></path><path d="M283.144 318.035c5.586 0 11.17-0.531 16.6-1.579a6.001 6.001 0 0 0-2.275-11.783 75.7 75.7 0 0 1-14.324 1.362c-23.022 0-45.049-10.175-60.435-27.92-12.836-14.775-19.905-33.53-19.905-52.81 0-15.468 4.483-30.152 12.964-42.465a6.001 6.001 0 0 0-9.883-6.807c-9.866 14.324-15.081 31.362-15.081 49.272 0 22.172 8.114 43.721 22.843 60.675 17.661 20.372 42.992 32.055 69.496 32.055M227.183 167.985a5.98 5.98 0 0 0 3.933-1.47L361.514 53.237a71 71 0 0 1 21.472-12.852 6 6 0 1 0-4.26-11.218 83 83 0 0 0-25.084 15.013L223.245 157.455a6.001 6.001 0 0 0 3.938 10.53M453.66 181.919L331.065 288.352a6 6 0 1 0 7.867 9.061L461.527 190.98a6 6 0 1 0-7.867-9.061M478.897 55.613c-17.662-20.347-42.994-32.016-69.5-32.016-1.845 0-3.709 0.058-5.542 0.173a6 6 0 0 0-5.612 6.364 5.99 5.99 0 0 0 6.364 5.612c1.583-0.1 3.195-0.15 4.79-0.15 23.027 0 45.057 10.163 60.442 27.888 12.85 14.768 19.926 33.531 19.926 52.833 0 18.798-6.702 36.543-18.873 49.967a6 6 0 1 0 8.89 8.06c14.176-15.635 21.982-36.243 21.982-58.027 0.002-22.197-8.121-43.757-22.867-60.704" fill="#d9cad3" data-fill-palette-color="accent"></path></svg></g></svg></g></svg></g></svg></g></svg></g><defs></defs></svg><rect width="395.52" height="131.66757032493544" fill="none" stroke="none" visibility="hidden"></rect></g></svg></g></svg>