<svg xmlns="http://www.w3.org/2000/svg" version="1.1" xmlns:xlink="http://www.w3.org/1999/xlink" xmlns:svgjs="http://svgjs.dev/svgjs" width="1500" height="1500" viewBox="0 0 1500 1500"><rect width="1500" height="1500" fill="#ffffff"></rect><g transform="matrix(0.6666666666666666,0,0,0.6666666666666666,249.39393939393938,602.3487535813679)"><svg viewBox="0 0 396 117" data-background-color="#ffffff" preserveAspectRatio="xMidYMid meet" height="443" width="1500" xmlns="http://www.w3.org/2000/svg" xmlns:xlink="http://www.w3.org/1999/xlink"><g id="tight-bounds" transform="matrix(1,0,0,1,0.2400000000000091,-0.006108924447062236)"><svg viewBox="0 0 395.52 117.01221784889415" height="117.01221784889415" width="395.52"><g><svg viewBox="0 0 605.1228531807822 179.0219637988827" height="117.01221784889415" width="395.52"><g transform="matrix(1,0,0,1,0,24.741819888268168)"><svg viewBox="0 0 395.52000000000004 129.53832402234636" height="129.53832402234636" width="395.52000000000004"><g id="textblocktransform"><svg viewBox="0 0 395.52000000000004 129.53832402234636" height="129.53832402234636" width="395.52000000000004" id="textblock"><g><svg viewBox="0 0 395.52000000000004 129.53832402234636" height="129.53832402234636" width="395.52000000000004"><g transform="matrix(1,0,0,1,0,0)"><svg width="395.52000000000004" viewBox="4.05 -36.8 143.19 46.9" height="129.53832402234636" data-palette-color="#085f63"><path d="M5.15-32.4L9.05-32.4 19.05-12.25 29-32.4 33-32.4 34 0 30.65 0 30.35-24.4 30.3-28 20.65-9 17.4-9 7.75-28 7.4 0 4.05 0 5.15-32.4ZM37.9 9.2L39.05 7.2Q40.85 7.7 42.1 7.7L42.1 7.7Q46.05 7.6 47.4 4.05L47.4 4.05 48.9 0.05 39.35-24.6 42.95-24.6 50.55-3.5 58-24.6 61.5-24.6 50.5 5.05Q48.45 10.1 43 10.1L43 10.1Q40.7 10.1 37.9 9.2L37.9 9.2ZM67.55 0L67.55-0.05 67.5-0.05 67.5-32.4 70.8-32.4 70.75-2.8 85.15-2.8 85.15 0 67.55 0ZM90.19 0L90.19-24.6 93.29-24.6 93.29 0 90.19 0ZM89.99-29.25L89.99-32.85 93.49-32.85 93.49-29.25 89.99-29.25ZM119.64-17.6L119.64 0 116.39 0 116.39-17.6Q116.34-20.05 115.02-21.1 113.69-22.15 111.27-22.15 108.84-22.15 106.82-21.2 104.79-20.25 104.44-19.4L104.44-19.4 104.44 0 101.24 0 101.24-18.25 100.39-24.35 102.54-24.35 102.69-24.25 103.64-21.7Q105.39-22.9 106.49-23.5L106.49-23.5Q109.24-25.15 112.49-25.15L112.49-25.15Q119.49-25.15 119.64-17.6L119.64-17.6ZM130.39-10.35L130.39 0 127.29 0 127.29-36.8 130.39-36.8 130.39-14.6 139.09-24.6 142.84-24.6 134.29-14.8 147.24 0 143.24 0 132.29-12.55 130.39-10.35Z" opacity="1" transform="matrix(1,0,0,1,0,0)" fill="#085f63" class="wordmark-text-0" data-fill-palette-color="primary" id="text-0"></path></svg></g></svg></g></svg></g></svg></g><g transform="matrix(1,0,0,1,426.1008893818995,0)"><svg viewBox="0 0 179.0219637988827 179.0219637988827" height="179.0219637988827" width="179.0219637988827"><g data-palette-color="#49beb7"><rect width="48.93267010502794" height="179.0219637988827" fill="#49beb7" stroke="transparent" data-fill-palette-color="accent" x="0" fill-opacity="1"></rect><rect width="48.93267010502794" height="179.0219637988827" fill="#49beb7" stroke="transparent" data-fill-palette-color="accent" x="59.6739879329609" fill-opacity="0.75"></rect><rect width="48.93267010502794" height="179.0219637988827" fill="#49beb7" stroke="transparent" data-fill-palette-color="accent" x="119.3479758659218" fill-opacity="0.5"></rect></g></svg></g></svg></g><defs></defs></svg><rect width="395.52" height="117.01221784889415" fill="none" stroke="none" visibility="hidden"></rect></g></svg></g></svg>