<svg xmlns="http://www.w3.org/2000/svg" version="1.1" xmlns:xlink="http://www.w3.org/1999/xlink" xmlns:svgjs="http://svgjs.dev/svgjs" width="1500" height="1500" viewBox="0 0 1500 1500"><rect width="1500" height="1500" fill="#ffffff"></rect><g transform="matrix(0.6666666666666666,0,0,0.6666666666666666,249.39393939393938,649.9064823212175)"><svg viewBox="0 0 396 79" data-background-color="#ffffff" preserveAspectRatio="xMidYMid meet" height="299" width="1500" xmlns="http://www.w3.org/2000/svg" xmlns:xlink="http://www.w3.org/1999/xlink"><g id="tight-bounds" transform="matrix(1,0,0,1,0.2400000000000091,0.16917004995229945)"><svg viewBox="0 0 395.52 78.66165990009539" height="78.66165990009539" width="395.52"><g><svg viewBox="0 0 581.5615495479125 115.66190539419085" height="78.66165990009539" width="395.52"><g><rect width="10.378616906999502" height="115.66190539419085" x="148.49377843410798" y="0" fill="#000000" opacity="1" stroke-width="0" stroke="transparent" fill-opacity="1" class="rect-yte-0" data-fill-palette-color="primary" rx="1%" id="yte-0" data-palette-color="#085f63"></rect></g><g transform="matrix(1,0,0,1,186.04154954791247,0.2877161825726091)"><svg viewBox="0 0 395.52 115.08647302904564" height="115.08647302904564" width="395.52"><g id="textblocktransform"><svg viewBox="0 0 395.52 115.08647302904564" height="115.08647302904564" width="395.52" id="textblock"><g><svg viewBox="0 0 395.52 115.08647302904564" height="115.08647302904564" width="395.52"><g transform="matrix(1,0,0,1,0,0)"><svg width="395.52" viewBox="3.25 -33.48 144.59 42.07999999999999" height="115.08647302904564" data-palette-color="#085f63"><path d="M7.7-13.45L7.28 0 3.25 0 4.48-31.95 10.9-31.95 18.48-8.85 18.82-8.85 26.4-31.95 32.85-31.95 34.08 0 30.05 0 29.6-13.48 29.18-27.63 28.73-27.63 20.83-3.68 16.5-3.68 8.6-27.63 8.15-27.63 7.7-13.45ZM42.62-24.4L49.27-3.78 51.6-3.78 49.47-2.85 56.77-24.4 60.95-24.4 49.47 8.6 45.37 8.6 49.22-2.55 51-1 46.4-1 38.42-24.4 42.62-24.4ZM65.8-31.95L69.95-31.95 69.95 0 65.8 0 65.8-31.95ZM84.87 0L68.02 0 68.02-3.53 84.87-3.53 84.87 0ZM93.79-24.4L93.79 0 89.74 0 89.74-24.4 93.79-24.4ZM91.77-28.4L91.77-28.4Q90.52-28.4 89.91-29.06 89.29-29.73 89.29-30.88L89.29-30.88 89.29-31Q89.29-32.18 89.91-32.83 90.52-33.48 91.77-33.48L91.77-33.48Q93.02-33.48 93.64-32.83 94.27-32.18 94.27-31L94.27-31 94.27-30.88Q94.27-29.7 93.64-29.05 93.02-28.4 91.77-28.4ZM120.87-15.63L120.87 0 116.82 0 116.82-15.18Q116.82-17.15 116.28-18.57 115.74-20 114.53-20.79 113.32-21.58 111.22-21.58L111.22-21.58Q109.29-21.58 107.88-20.85 106.47-20.13 105.59-18.89 104.72-17.65 104.37-16.07L104.37-16.07 103.64-18.95 104.52-18.95Q104.92-20.6 105.92-21.96 106.92-23.33 108.6-24.14 110.29-24.95 112.74-24.95L112.74-24.95Q115.64-24.95 117.43-23.85 119.22-22.75 120.04-20.69 120.87-18.63 120.87-15.63L120.87-15.63ZM104.54-18.32L104.54 0 100.49 0 100.49-24.4 104.54-24.4 104.37-18.55 104.54-18.32ZM136.31-13.6L147.84 0 142.99 0 133.34-11.38 130.76-11.38 130.76-14.53 133.34-14.53 142.59-24.4 147.39-24.4 136.31-12.63 136.31-13.6ZM131.16-33.13L131.16 0 127.14 0 127.14-33.13 131.16-33.13Z" opacity="1" transform="matrix(1,0,0,1,0,0)" fill="#000000" class="wordmark-text-0" data-fill-palette-color="primary" id="text-0"></path></svg></g></svg></g></svg></g></svg></g><g transform="matrix(1,0,0,1,0,0.2877161825726091)"><svg viewBox="0 0 121.324624227303 115.08647302904564" height="115.08647302904564" width="121.324624227303"><g><svg xmlns="http://www.w3.org/2000/svg" xml:space="preserve" viewBox="12.934533764923994 25.589622361506475 486.83392989745533 461.80237770857394" x="0" y="0" height="115.08647302904564" width="121.324624227303" class="icon-icon-0" data-fill-palette-color="accent" id="icon-0"><path d="M213.437 198.471a4 4 0 0 0 1.518 7.856c27.955-5.401 57.278 5.003 76.52 27.152 14.124 16.238 21.345 36.839 20.333 58.007-1.009 21.102-10.079 40.119-25.54 53.551l-133.763 116.2c-32.126 27.853-82 23.14-111.181-10.503-14.106-16.231-21.314-36.826-20.294-57.989 1.017-21.094 10.085-40.094 25.538-53.499l133.758-116.204a4 4 0 0 0-5.247-6.039L41.323 333.205c-17.116 14.85-27.161 35.857-28.284 59.155-1.119 23.231 6.782 45.826 22.244 63.619 17.966 20.713 43.108 31.414 67.983 31.413 19.526 0 38.888-6.594 54.482-20.113l133.765-116.204c17.125-14.877 27.17-35.904 28.284-59.207 1.111-23.237-6.804-45.838-22.285-63.638-21.108-24.296-53.321-35.696-84.075-29.759" fill="#000000" data-fill-palette-color="accent"></path><path d="M477.387 56.924c-15.455-17.804-36.72-28.796-59.876-30.95-23.247-2.161-45.453 4.841-62.558 19.717L221.194 161.888c-35.415 30.771-38.122 85.853-6.037 122.783 17.413 20.083 42.413 31.374 67.935 31.374 5.424 0 10.87-0.51 16.272-1.553a4 4 0 0 0 3.169-4.687 4.004 4.004 0 0 0-4.687-3.169c-28.029 5.415-57.399-5.01-76.648-27.209-29.194-33.604-26.842-83.623 5.242-111.501L360.2 51.728c15.441-13.429 35.532-19.747 56.568-17.789 21.096 1.963 40.479 11.987 54.579 28.232 14.122 16.229 21.341 36.828 20.324 58.001-1.012 21.099-10.078 40.119-25.525 53.555L332.377 289.861a4 4 0 1 0 5.245 6.041l133.773-116.136c17.112-14.884 27.151-35.912 28.27-59.211 1.114-23.242-6.798-45.841-22.278-63.631" fill="#000000" data-fill-palette-color="accent"></path></svg></g></svg></g></svg></g><defs></defs></svg><rect width="395.52" height="78.66165990009539" fill="none" stroke="none" visibility="hidden"></rect></g></svg></g></svg>