<svg xmlns="http://www.w3.org/2000/svg" version="1.1" xmlns:xlink="http://www.w3.org/1999/xlink" xmlns:svgjs="http://svgjs.dev/svgjs" width="1500" height="1500" viewBox="0 0 1500 1500"><rect width="1500" height="1500" fill="#000000"></rect><g transform="matrix(0.6666666666666666,0,0,0.6666666666666666,249.39393939393938,658.8701210796887)"><svg viewBox="0 0 396 72" data-background-color="#ffffff" preserveAspectRatio="xMidYMid meet" height="272" width="1500" xmlns="http://www.w3.org/2000/svg" xmlns:xlink="http://www.w3.org/1999/xlink"><g id="tight-bounds" transform="matrix(1,0,0,1,0.2400000000000091,0.18392251247658464)"><svg viewBox="0 0 395.52 71.63215497504684" height="71.63215497504684" width="395.52"><g><svg viewBox="0 0 668.5348639346937 121.07755102040817" height="71.63215497504684" width="395.52"><g transform="matrix(1,0,0,1,273.01486393469384,0)"><svg viewBox="0 0 395.5199999999999 121.07755102040817" height="121.07755102040817" width="395.5199999999999"><g id="textblocktransform"><svg viewBox="0 0 395.5199999999999 121.07755102040817" height="121.07755102040817" width="395.5199999999999" id="textblock"><g><svg viewBox="0 0 395.5199999999999 121.07755102040817" height="121.07755102040817" width="395.5199999999999"><g transform="matrix(1,0,0,1,0,0)"><svg width="395.5199999999999" viewBox="3.7 -35.8 151.89000000000001 46.5" height="121.07755102040817" data-palette-color="#906b7f"><g class="wordmark-text-0" data-fill-palette-color="primary" id="text-0"><path d="M33.05-30L23 0 18.2 0 8-30 8 0 3.7 0 3.7-35.8 10-35.8 20.65-4.65 31.05-35.8 37.4-35.8 37.4 0 33.05 0 33.05-30ZM52.85-5.7L60-25.7 64.4-25.7 52.95 5.4Q50.95 10.7 46.3 10.7L46.3 10.7Q44.1 10.7 42.45 9.7L42.45 9.7 43.25 6.15Q44.5 6.65 45.7 6.65L45.7 6.65Q48.1 6.65 49.05 4.15L49.05 4.15 50.6 0.05 41.9-25.7 46.3-25.7 52.85-5.7ZM69.4-35.8L73.95-35.8 73.95-4.05 91.6-4.05 91.6 0 69.4 0 69.4-35.8ZM95.99-25.7L100.04-25.7 100.04 0 95.99 0 95.99-25.7ZM98.09-35.75L98.09-35.75Q99.14-35.75 99.87-35.02 100.59-34.3 100.59-33.3L100.59-33.3Q100.59-32.25 99.87-31.53 99.14-30.8 98.09-30.8L98.09-30.8Q97.09-30.8 96.37-31.53 95.64-32.25 95.64-33.3L95.64-33.3Q95.64-34.3 96.37-35.02 97.09-35.75 98.09-35.75ZM107.09 0L107.09-25.7 110.89-25.7 110.89-21.35Q113.99-26.25 119.39-26.25L119.39-26.25Q123.14-26.25 125.34-24.38 127.54-22.5 127.54-19.35L127.54-19.35 127.54 0 123.49 0 123.49-17.7Q123.49-20 122.07-21.35 120.64-22.7 118.19-22.7L118.19-22.7Q114.99-22.7 113.09-20.35 111.19-18 111.19-14.1L111.19-14.1 111.19 0 107.09 0ZM133.79-35.8L137.84-35.8 137.84-14.8 148.74-25.7 154.04-25.7 145.09-16.85 155.59 0 150.54 0 141.84-13.95 137.84-10.05 137.84 0 133.79 0 133.79-35.8Z" fill="#ffffff" data-fill-palette-color="primary"></path></g></svg></g></svg></g></svg></g></svg></g><g transform="matrix(1,0,0,1,0,9.404062502216455)"><svg viewBox="0 0 244.43135999999998 102.26942601597526" height="102.26942601597526" width="244.43135999999998"><g><svg xmlns="http://www.w3.org/2000/svg" xml:space="preserve" viewBox="1.4879999999999995 29.703 97.02499999999999 40.595" x="0" y="0" height="102.26942601597526" width="244.43135999999998" class="icon-icon-0" data-fill-palette-color="accent" id="icon-0"><path d="M14.34 39.339h33.61c-1.432-5.545-6.442-9.636-12.436-9.636H14.34c-7.094 0-12.852 5.748-12.852 12.861v14.871c0 7.116 5.758 12.861 12.852 12.861h21.173c5.994 0 11.004-4.091 12.436-9.634H14.34a3.22 3.22 0 0 1-3.214-3.228v-14.87a3.22 3.22 0 0 1 3.214-3.225M85.661 29.703H64.486c-5.992 0-11.003 4.091-12.435 9.636H85.66a3.23 3.23 0 0 1 3.226 3.226v14.871a3.23 3.23 0 0 1-3.226 3.228H52.052c1.432 5.543 6.442 9.634 12.435 9.634h21.175c7.104 0 12.851-5.745 12.851-12.861V42.564c-0.001-7.113-5.748-12.861-12.852-12.861" fill="#ffffff" data-fill-palette-color="accent"></path><path d="M75.426 50a5.17 5.17 0 0 1-5.181 5.17H29.757a5.17 5.17 0 1 1 0-10.34h40.488A5.17 5.17 0 0 1 75.426 50" fill="#ffffff" data-fill-palette-color="accent"></path></svg></g></svg></g></svg></g><defs></defs></svg><rect width="395.52" height="71.63215497504684" fill="none" stroke="none" visibility="hidden"></rect></g></svg></g></svg>